ffmpeg started on 2025-06-19 at 11:54:41
Report written to "D:\Convert\FFMetrics\reports\ssim_report-6.txt"
Log level: 32
Command line:
ffmpeg -hide_banner -nostdin -i "G:\\\xc0\xed\xe8\xec\xe5\\[\xd2\xee\xef-4]\\Fate\\\xc0\xef\xee\xea\xf0\xe8\xf4\\Fate_Apocrypha_[10]_[AniLibria_TV]_[HDTVRip_720p]_HEVC.mkv" -i "G:\\\xc0\xed\xe8\xec\xe5\\[\xd2\xee\xef-4]\\Fate\\\xc0\xef\xee\xea\xf0\xe8\xf4\\Fate_Apocrypha_[10]_[AniLibria_TV]_[HDTVRip_720p].mkv" -lavfi "[0:v]settb=AVTB,setpts=PTS-STARTPTS,format=pix_fmts=yuv420p10,fps=24000/1001,scale=1280:720:flags=bicubic[main];[1:v]settb=AVTB,setpts=PTS-STARTPTS,format=pix_fmts=yuv420p,fps=24000/1001,scale=1280:720:flags=bicubic[ref];[main][ref]ssim=eof_action=endall:stats_file='D\\:/Convert/FFMetrics/logs/ssim_logfile-6.txt'" -f null -
Input #0, matroska,webm, from 'G:\Аниме\[Топ-4]\Fate\Апокриф\Fate_Apocrypha_[10]_[AniLibria_TV]_[HDTVRip_720p]_HEVC.mkv':
  Metadata:
    ENCODER         : Lavf61.7.100
  Duration: 00:24:00.17, start: -0.021000, bitrate: 790 kb/s
  Stream #0:0(jpn): Video: hevc (Main 10), yuv420p10le(tv, bt709, progressive), 1280x720 [SAR 1:1 DAR 16:9], 23.81 fps, 23.81 tbr, 1k tbn (default)
      Metadata:
        ENCODER         : Lavc61.19.100 libx265
        BPS             : 591591
        DURATION        : 00:24:00.054000000
        NUMBER_OF_FRAMES: 34525
        NUMBER_OF_BYTES : 106490461
        _STATISTICS_WRITING_APP: mkvpropedit v66.0.0 ('Josie') 64-bit
        _STATISTICS_WRITING_DATE_UTC: 2025-06-16 16:16:08
        _STATISTICS_TAGS: BPS DURATION NUMBER_OF_FRAMES NUMBER_OF_BYTES
  Stream #0:1(rus): Audio: aac (LC), 48000 Hz, stereo, fltp (default)
      Metadata:
        title           : Ados Amikiri Anzen Hekomi Silv
        ENCODER         : Lavc61.19.100 aac
        BPS             : 194120
        DURATION        : 00:24:00.149000000
        NUMBER_OF_FRAMES: 67508
        NUMBER_OF_BYTES : 34945227
        _STATISTICS_WRITING_APP: mkvpropedit v66.0.0 ('Josie') 64-bit
        _STATISTICS_WRITING_DATE_UTC: 2025-06-16 16:16:08
        _STATISTICS_TAGS: BPS DURATION NUMBER_OF_FRAMES NUMBER_OF_BYTES
  Stream #0:2(rus): Subtitle: ass (ssa) (default) (forced)
      Metadata:
        title           : Надписи
        BPS             : 152
        DURATION        : 00:22:04.550000000
        NUMBER_OF_FRAMES: 188
        NUMBER_OF_BYTES : 25199
        _STATISTICS_WRITING_APP: mkvpropedit v66.0.0 ('Josie') 64-bit
        _STATISTICS_WRITING_DATE_UTC: 2025-06-16 16:16:08
        _STATISTICS_TAGS: BPS DURATION NUMBER_OF_FRAMES NUMBER_OF_BYTES
  Stream #0:3(rus): Subtitle: ass (ssa)
      Metadata:
        title           : Полные
        BPS             : 225
        DURATION        : 00:23:30.220000000
        NUMBER_OF_FRAMES: 376
        NUMBER_OF_BYTES : 39670
        _STATISTICS_WRITING_APP: mkvpropedit v66.0.0 ('Josie') 64-bit
        _STATISTICS_WRITING_DATE_UTC: 2025-06-16 16:16:08
        _STATISTICS_TAGS: BPS DURATION NUMBER_OF_FRAMES NUMBER_OF_BYTES
Input #1, matroska,webm, from 'G:\Аниме\[Топ-4]\Fate\Апокриф\Fate_Apocrypha_[10]_[AniLibria_TV]_[HDTVRip_720p].mkv':
  Metadata:
    encoder         : libebml v1.3.0 + libmatroska v1.4.1
    creation_time   : 2017-09-03T19:20:12.000000Z
  Duration: 00:24:00.15, start: 0.000000, bitrate: 2622 kb/s
  Stream #1:0: Video: h264 (Main), yuv420p(tv, bt709, progressive), 1280x720, SAR 1:1 DAR 16:9, 23.81 fps, 23.81 tbr, 1k tbn (default)
      Metadata:
        BPS             : 2209005
        BPS-eng         : 2209005
        DURATION        : 00:24:00.051000000
        DURATION-eng    : 00:24:00.051000000
        NUMBER_OF_FRAMES: 34525
        NUMBER_OF_FRAMES-eng: 34525
        NUMBER_OF_BYTES : 397635030
        NUMBER_OF_BYTES-eng: 397635030
        _STATISTICS_WRITING_APP: mkvmerge v7.3.0 ('Nouages') 64bit built on Oct 22 2014 18:53:34
        _STATISTICS_WRITING_APP-eng: mkvmerge v7.3.0 ('Nouages') 64bit built on Oct 22 2014 18:53:34
        _STATISTICS_WRITING_DATE_UTC: 2017-09-03 19:20:12
        _STATISTICS_WRITING_DATE_UTC-eng: 2017-09-03 19:20:12
        _STATISTICS_TAGS: BPS DURATION NUMBER_OF_FRAMES NUMBER_OF_BYTES
        _STATISTICS_TAGS-eng: BPS DURATION NUMBER_OF_FRAMES NUMBER_OF_BYTES
  Stream #1:1(rus): Audio: aac (LC), 48000 Hz, stereo, fltp (default)
      Metadata:
        title           : Ados Amikiri Anzen Hekomi Silv
        BPS             : 192092
        BPS-eng         : 192092
        DURATION        : 00:24:00.149000000
        DURATION-eng    : 00:24:00.149000000
        NUMBER_OF_FRAMES: 67507
        NUMBER_OF_FRAMES-eng: 67507
        NUMBER_OF_BYTES : 34580248
        NUMBER_OF_BYTES-eng: 34580248
        _STATISTICS_WRITING_APP: mkvmerge v7.3.0 ('Nouages') 64bit built on Oct 22 2014 18:53:34
        _STATISTICS_WRITING_APP-eng: mkvmerge v7.3.0 ('Nouages') 64bit built on Oct 22 2014 18:53:34
        _STATISTICS_WRITING_DATE_UTC: 2017-09-03 19:20:12
        _STATISTICS_WRITING_DATE_UTC-eng: 2017-09-03 19:20:12
        _STATISTICS_TAGS: BPS DURATION NUMBER_OF_FRAMES NUMBER_OF_BYTES
        _STATISTICS_TAGS-eng: BPS DURATION NUMBER_OF_FRAMES NUMBER_OF_BYTES
  Stream #1:2(jpn): Audio: aac (LC), 48000 Hz, stereo, fltp
      Metadata:
        title           : Оригинал
        BPS             : 216390
        BPS-eng         : 216390
        DURATION        : 00:24:00.106000000
        DURATION-eng    : 00:24:00.106000000
        NUMBER_OF_FRAMES: 67505
        NUMBER_OF_FRAMES-eng: 67505
        NUMBER_OF_BYTES : 38953133
        NUMBER_OF_BYTES-eng: 38953133
        _STATISTICS_WRITING_APP: mkvmerge v7.3.0 ('Nouages') 64bit built on Oct 22 2014 18:53:34
        _STATISTICS_WRITING_APP-eng: mkvmerge v7.3.0 ('Nouages') 64bit built on Oct 22 2014 18:53:34
        _STATISTICS_WRITING_DATE_UTC: 2017-09-03 19:20:12
        _STATISTICS_WRITING_DATE_UTC-eng: 2017-09-03 19:20:12
        _STATISTICS_TAGS: BPS DURATION NUMBER_OF_FRAMES NUMBER_OF_BYTES
        _STATISTICS_TAGS-eng: BPS DURATION NUMBER_OF_FRAMES NUMBER_OF_BYTES
  Stream #1:3(rus): Subtitle: ass (ssa) (default) (forced)
      Metadata:
        title           : Надписи
        BPS             : 152
        BPS-eng         : 152
        DURATION        : 00:22:04.550000000
        DURATION-eng    : 00:22:04.550000000
        NUMBER_OF_FRAMES: 188
        NUMBER_OF_FRAMES-eng: 188
        NUMBER_OF_BYTES : 25199
        NUMBER_OF_BYTES-eng: 25199
        _STATISTICS_WRITING_APP: mkvmerge v7.3.0 ('Nouages') 64bit built on Oct 22 2014 18:53:34
        _STATISTICS_WRITING_APP-eng: mkvmerge v7.3.0 ('Nouages') 64bit built on Oct 22 2014 18:53:34
        _STATISTICS_WRITING_DATE_UTC: 2017-09-03 19:20:12
        _STATISTICS_WRITING_DATE_UTC-eng: 2017-09-03 19:20:12
        _STATISTICS_TAGS: BPS DURATION NUMBER_OF_FRAMES NUMBER_OF_BYTES
        _STATISTICS_TAGS-eng: BPS DURATION NUMBER_OF_FRAMES NUMBER_OF_BYTES
  Stream #1:4(rus): Subtitle: ass (ssa)
      Metadata:
        title           : Полные
        BPS             : 225
        BPS-eng         : 225
        DURATION        : 00:23:30.220000000
        DURATION-eng    : 00:23:30.220000000
        NUMBER_OF_FRAMES: 376
        NUMBER_OF_FRAMES-eng: 376
        NUMBER_OF_BYTES : 39670
        NUMBER_OF_BYTES-eng: 39670
        _STATISTICS_WRITING_APP: mkvmerge v7.3.0 ('Nouages') 64bit built on Oct 22 2014 18:53:34
        _STATISTICS_WRITING_APP-eng: mkvmerge v7.3.0 ('Nouages') 64bit built on Oct 22 2014 18:53:34
        _STATISTICS_WRITING_DATE_UTC: 2017-09-03 19:20:12
        _STATISTICS_WRITING_DATE_UTC-eng: 2017-09-03 19:20:12
        _STATISTICS_TAGS: BPS DURATION NUMBER_OF_FRAMES NUMBER_OF_BYTES
        _STATISTICS_TAGS-eng: BPS DURATION NUMBER_OF_FRAMES NUMBER_OF_BYTES
  Stream #1:5: Attachment: ttf
      Metadata:
        filename        : 9511(1).ttf
        mimetype        : application/x-truetype-font
  Stream #1:6: Attachment: ttf
      Metadata:
        filename        : ALBR.ttf
        mimetype        : application/x-truetype-font
Stream mapping:
  Stream #0:0 (hevc) -> settb:default
  Stream #1:0 (h264) -> settb:default
  ssim:default -> Stream #0:0 (wrapped_avframe)
  Stream #0:1 -> #0:1 (aac (native) -> pcm_s16le (native))
Output #0, null, to 'pipe:':
  Metadata:
    encoder         : Lavf61.7.100
  Stream #0:0: Video: wrapped_avframe, yuv420p10le(tv, bt709, progressive), 1280x720 [SAR 1:1 DAR 16:9], q=2-31, 200 kb/s, 23.98 fps, 23.98 tbn
      Metadata:
        encoder         : Lavc61.19.100 wrapped_avframe
  Stream #0:1(rus): Audio: pcm_s16le, 48000 Hz, stereo, s16, 1536 kb/s (default)
      Metadata:
        title           : Ados Amikiri Anzen Hekomi Silv
        _STATISTICS_TAGS: BPS DURATION NUMBER_OF_FRAMES NUMBER_OF_BYTES
        BPS             : 194120
        DURATION        : 00:24:00.149000000
        NUMBER_OF_FRAMES: 67508
        NUMBER_OF_BYTES : 34945227
        _STATISTICS_WRITING_APP: mkvpropedit v66.0.0 ('Josie') 64-bit
        _STATISTICS_WRITING_DATE_UTC: 2025-06-16 16:16:08
        encoder         : Lavc61.19.100 pcm_s16le
frame=  417 fps=0.0 q=-0.0 size=N/A time=00:00:17.39 bitrate=N/A speed=33.8x    frame=  793 fps=773 q=-0.0 size=N/A time=00:00:33.07 bitrate=N/A speed=32.2x    frame= 1189 fps=766 q=-0.0 size=N/A time=00:00:49.59 bitrate=N/A speed=31.9x    frame= 1617 fps=784 q=-0.0 size=N/A time=00:01:07.44 bitrate=N/A speed=32.7x    frame= 2175 fps=841 q=-0.0 size=N/A time=00:01:30.71 bitrate=N/A speed=35.1x    frame= 2579 fps=829 q=-0.0 size=N/A time=00:01:47.56 bitrate=N/A speed=34.6x    frame= 2986 fps=822 q=-0.0 size=N/A time=00:02:04.54 bitrate=N/A speed=34.3x    frame= 3486 fps=842 q=-0.0 size=N/A time=00:02:25.39 bitrate=N/A speed=35.1x    frame= 3924 fps=842 q=-0.0 size=N/A time=00:02:43.66 bitrate=N/A speed=35.1x    frame= 4272 fps=826 q=-0.0 size=N/A time=00:02:58.17 bitrate=N/A speed=34.5x    frame= 4636 fps=814 q=-0.0 size=N/A time=00:03:13.35 bitrate=N/A speed=  34x    frame= 5142 fps=829 q=-0.0 size=N/A time=00:03:34.46 bitrate=N/A speed=34.6x    frame= 5600 fps=834 q=-0.0 size=N/A time=00:03:53.56 bitrate=N/A speed=34.8x    frame= 6227 fps=860 q=-0.0 size=N/A time=00:04:19.71 bitrate=N/A speed=35.9x    frame= 6773 fps=874 q=-0.0 size=N/A time=00:04:42.49 bitrate=N/A speed=36.5x    frame= 7161 fps=866 q=-0.0 size=N/A time=00:04:58.67 bitrate=N/A speed=36.1x    frame= 7544 fps=859 q=-0.0 size=N/A time=00:05:14.64 bitrate=N/A speed=35.8x    frame= 8053 fps=866 q=-0.0 size=N/A time=00:05:35.87 bitrate=N/A speed=36.1x    frame= 8513 fps=867 q=-0.0 size=N/A time=00:05:55.06 bitrate=N/A speed=36.2x    frame= 8946 fps=866 q=-0.0 size=N/A time=00:06:13.12 bitrate=N/A speed=36.1x    frame= 9399 fps=866 q=-0.0 size=N/A time=00:06:32.01 bitrate=N/A speed=36.1x    frame= 9965 fps=877 q=-0.0 size=N/A time=00:06:55.62 bitrate=N/A speed=36.6x    frame=10513 fps=886 q=-0.0 size=N/A time=00:07:18.47 bitrate=N/A speed=36.9x    frame=11015 fps=889 q=-0.0 size=N/A time=00:07:39.41 bitrate=N/A speed=37.1x    frame=11593 fps=899 q=-0.0 size=N/A time=00:08:03.52 bitrate=N/A speed=37.5x    frame=12097 fps=901 q=-0.0 size=N/A time=00:08:24.54 bitrate=N/A speed=37.6x    frame=12700 fps=911 q=-0.0 size=N/A time=00:08:49.69 bitrate=N/A speed=  38x    frame=13096 fps=906 q=-0.0 size=N/A time=00:09:06.21 bitrate=N/A speed=37.8x    frame=13586 fps=908 q=-0.0 size=N/A time=00:09:26.64 bitrate=N/A speed=37.9x    frame=14048 fps=907 q=-0.0 size=N/A time=00:09:45.91 bitrate=N/A speed=37.8x    frame=14438 fps=903 q=-0.0 size=N/A time=00:10:02.18 bitrate=N/A speed=37.7x    frame=14883 fps=901 q=-0.0 size=N/A time=00:10:20.74 bitrate=N/A speed=37.6x    frame=15299 fps=899 q=-0.0 size=N/A time=00:10:38.09 bitrate=N/A speed=37.5x    frame=15782 fps=900 q=-0.0 size=N/A time=00:10:58.24 bitrate=N/A speed=37.5x    frame=16240 fps=899 q=-0.0 size=N/A time=00:11:17.34 bitrate=N/A speed=37.5x    frame=16676 fps=897 q=-0.0 size=N/A time=00:11:35.52 bitrate=N/A speed=37.4x    frame=16936 fps=887 q=-0.0 size=N/A time=00:11:46.37 bitrate=N/A speed=  37x    frame=17276 fps=881 q=-0.0 size=N/A time=00:12:00.55 bitrate=N/A speed=36.7x    frame=17662 fps=878 q=-0.0 size=N/A time=00:12:16.65 bitrate=N/A speed=36.6x    frame=18127 fps=878 q=-0.0 size=N/A time=00:12:36.04 bitrate=N/A speed=36.6x    frame=18679 fps=883 q=-0.0 size=N/A time=00:12:59.06 bitrate=N/A speed=36.8x    frame=19281 fps=890 q=-0.0 size=N/A time=00:13:24.17 bitrate=N/A speed=37.1x    frame=19748 fps=890 q=-0.0 size=N/A time=00:13:43.65 bitrate=N/A speed=37.1x    frame=20195 fps=889 q=-0.0 size=N/A time=00:14:02.29 bitrate=N/A speed=37.1x    frame=20677 fps=890 q=-0.0 size=N/A time=00:14:22.40 bitrate=N/A speed=37.1x    frame=21184 fps=892 q=-0.0 size=N/A time=00:14:43.54 bitrate=N/A speed=37.2x    frame=21726 fps=895 q=-0.0 size=N/A time=00:15:06.15 bitrate=N/A speed=37.3x    frame=22314 fps=901 q=-0.0 size=N/A time=00:15:30.67 bitrate=N/A speed=37.6x    frame=22943 fps=907 q=-0.0 size=N/A time=00:15:56.91 bitrate=N/A speed=37.8x    frame=23546 fps=912 q=-0.0 size=N/A time=00:16:22.06 bitrate=N/A speed=  38x    frame=24039 fps=913 q=-0.0 size=N/A time=00:16:42.62 bitrate=N/A speed=38.1x    frame=24536 fps=914 q=-0.0 size=N/A time=00:17:03.35 bitrate=N/A speed=38.1x    frame=25040 fps=915 q=-0.0 size=N/A time=00:17:24.37 bitrate=N/A speed=38.2x    frame=25603 fps=918 q=-0.0 size=N/A time=00:17:47.85 bitrate=N/A speed=38.3x    frame=26162 fps=922 q=-0.0 size=N/A time=00:18:11.17 bitrate=N/A speed=38.4x    frame=26743 fps=925 q=-0.0 size=N/A time=00:18:35.40 bitrate=N/A speed=38.6x    frame=27262 fps=926 q=-0.0 size=N/A time=00:18:57.05 bitrate=N/A speed=38.6x    frame=27897 fps=932 q=-0.0 size=N/A time=00:19:23.53 bitrate=N/A speed=38.9x    frame=28477 fps=935 q=-0.0 size=N/A time=00:19:47.72 bitrate=N/A speed=  39x    frame=29087 fps=939 q=-0.0 size=N/A time=00:20:13.17 bitrate=N/A speed=39.2x    frame=29680 fps=942 q=-0.0 size=N/A time=00:20:37.90 bitrate=N/A speed=39.3x    frame=30101 fps=941 q=-0.0 size=N/A time=00:20:55.46 bitrate=N/A speed=39.2x    frame=30639 fps=942 q=-0.0 size=N/A time=00:21:17.90 bitrate=N/A speed=39.3x    frame=31017 fps=939 q=-0.0 size=N/A time=00:21:33.66 bitrate=N/A speed=39.2x    frame=31432 fps=937 q=-0.0 size=N/A time=00:21:50.97 bitrate=N/A speed=39.1x    frame=31842 fps=935 q=-0.0 size=N/A time=00:22:08.07 bitrate=N/A speed=  39x    frame=32271 fps=933 q=-0.0 size=N/A time=00:22:25.96 bitrate=N/A speed=38.9x    frame=32596 fps=929 q=-0.0 size=N/A time=00:22:39.52 bitrate=N/A speed=38.7x    frame=33026 fps=927 q=-0.0 size=N/A time=00:22:57.45 bitrate=N/A speed=38.7x    frame=33420 fps=925 q=-0.0 size=N/A time=00:23:13.89 bitrate=N/A speed=38.6x    frame=33722 fps=920 q=-0.0 size=N/A time=00:23:26.48 bitrate=N/A speed=38.4x    frame=34032 fps=916 q=-0.0 size=N/A time=00:23:39.41 bitrate=N/A speed=38.2x    frame=34418 fps=913 q=-0.0 size=N/A time=00:23:55.51 bitrate=N/A speed=38.1x    [Parsed_ssim_10 @ 000002273040d040] SSIM Y:0.987069 (18.883834) U:0.991008 (20.461281) V:0.990463 (20.205720) All:0.988291 (19.314936)
[out#0/null @ 0000022724757840] video:14836KiB audio:270032KiB subtitle:0KiB other streams:0KiB global headers:0KiB muxing overhead: unknown
frame=34527 fps=914 q=-0.0 Lsize=N/A time=00:24:00.06 bitrate=N/A speed=38.1x    
